<svg width="30" height="30" viewBox="0 0 30 30" fill="none" xmlns="http://www.w3.org/2000/svg">
<path d="M30 21.8132C30 26.3258 26.3327 29.9932 21.82 29.9932V27.9482C25.2284 27.9482 27.955 25.2215 27.955 21.8132H30ZM0.00681655 8.17996C0.00681655 3.66735 3.67417 0 8.18678 0V2.04499C4.77846 2.04499 2.05181 4.77164 2.05181 8.17996H0.00681655ZM9.5501 4.52624L3.29243 10.7975C-1.09748 15.1875 -1.09748 22.3177 3.29243 26.7076C7.68234 31.0975 14.8125 31.0975 19.2025 26.7076L28.8412 17.0416C29.5092 16.4008 29.5092 15.3238 28.8412 14.6558C28.6829 14.4971 28.4948 14.3711 28.2878 14.2852C28.0807 14.1993 27.8588 14.1551 27.6346 14.1551C27.4105 14.1551 27.1885 14.1993 26.9815 14.2852C26.7744 14.3711 26.5864 14.4971 26.4281 14.6558L20.4022 20.6817L19.4342 19.7137L28.3504 10.7975C29.0184 10.1295 29.0184 9.05249 28.3504 8.38446C27.6823 7.71643 26.5917 7.71643 25.91 8.38446L17.9891 16.3599L17.0484 15.3647L26.4145 5.97137C27.0825 5.30334 27.0825 4.22631 26.4145 3.55828C25.7464 2.89025 24.6694 2.89025 24.0014 3.55828L14.608 12.9516L13.6401 11.9973L21.1384 4.52624C21.82 3.85821 21.82 2.78119 21.1384 2.11316C20.4567 1.44513 19.3933 1.44513 18.7253 2.11316L8.33674 12.5017C9.15016 13.551 9.5532 14.8608 9.47039 16.1858C9.38757 17.5108 8.82458 18.7603 7.88684 19.7001L6.91888 18.7321C7.6848 17.9652 8.11501 16.9257 8.11501 15.8419C8.11501 14.758 7.6848 13.7185 6.91888 12.9516L6.44172 12.4744L11.9905 6.9257C12.6585 6.25767 12.6585 5.18064 11.9905 4.51261C11.3088 3.85821 10.2318 3.85821 9.5501 4.52624Z" fill="#35393C"/>
</svg>
